<svg width="82" height="30" viewBox="0 0 82 30" fill="none" xmlns="http://www.w3.org/2000/svg">
<path d="M26.4999 12C24.9345 12 23.6666 13.3425 23.6666 15C23.6666 16.6575 24.9345 18 26.4999 18C28.0653 18 29.3333 16.6575 29.3333 15C29.3333 13.3425 28.0653 12 26.4999 12ZM32.8324 14.25C32.672 12.7291 32.0279 11.3112 31.0058 10.229C29.9838 9.14689 28.6447 8.46488 27.2083 8.295V6.75H25.7916V8.295C24.3552 8.46488 23.016 9.14689 21.994 10.229C20.972 11.3112 20.3279 12.7291 20.1674 14.25H18.7083V15.75H20.1674C20.3279 17.2709 20.972 18.6888 21.994 19.771C23.016 20.8531 24.3552 21.5351 25.7916 21.705V23.25H27.2083V21.705C28.6447 21.5351 29.9838 20.8531 31.0058 19.771C32.0279 18.6888 32.672 17.2709 32.8324 15.75H34.2916V14.25H32.8324ZM26.4999 20.25C23.7587 20.25 21.5416 17.9025 21.5416 15C21.5416 12.0975 23.7587 9.75 26.4999 9.75C29.2412 9.75 31.4583 12.0975 31.4583 15C31.4583 17.9025 29.2412 20.25 26.4999 20.25Z" fill="#609966"/>
<path d="M52.9869 14.03H43.3751V14.9912H47.5246V15.7648H44.4887V16.7026H50.5253V17.359H44.5004V19.9495H52.096V18.9766H45.778V18.2498H51.803V15.7648H48.814V14.9912H52.9869V14.03ZM43.7971 12.7055L44.1604 13.6784C46.0828 13.5611 47.5011 13.0454 48.1693 12.1897C48.8374 13.0454 50.2616 13.5611 52.1664 13.6784L52.5532 12.7055C50.4374 12.6 49.2066 12.0373 48.9488 11.2871H52.0609V10.3142H48.814V9.42339H47.5246V10.3142H44.3011V11.2871H47.3898C47.1202 12.0373 45.8894 12.6 43.7971 12.7055ZM55.3781 9.9157H54.0887V14.534H59.1408V9.9157H57.8514V11.2637H55.3781V9.9157ZM55.1554 16.3157H60.7818V17.1245H55.1671V19.9495H62.4111V18.9179H56.4565V18.074H62.0829V15.2959H55.1554V16.3157ZM55.3781 13.5025V12.2483H57.8514V13.5025H55.3781ZM60.7818 14.874H62.0829V12.6468H63.5598V11.5919H62.0829V9.44683H60.7818V14.874Z" fill="#609966"/>
<rect x="0.5" y="0.5" width="81" height="29" rx="14.5" stroke="#609966"/>
</svg>
