<svg width="22" height="29" viewBox="0 0 22 29" fill="none" xmlns="http://www.w3.org/2000/svg">
<g id="Group">
<path id="Vector" d="M2.5 27.75H19.5C19.9144 27.75 20.3118 27.5854 20.6049 27.2924C20.8979 26.9993 21.0625 26.6019 21.0625 26.1875V2.8125C21.0625 2.3981 20.8979 2.00067 20.6049 1.70765C20.3118 1.41462 19.9144 1.25 19.5 1.25H2.5C2.0856 1.25 1.68817 1.41462 1.39515 1.70765C1.10212 2.00067 0.9375 2.3981 0.9375 2.8125V26.1875C0.9375 26.6019 1.10212 26.9993 1.39515 27.2924M2.5 27.75L1.39515 27.2924M2.5 27.75C2.0856 27.75 1.68817 27.5854 1.39515 27.2924M2.5 27.75L0.997398 27.6901L1.39515 27.2924M4.625 6.5C4.31434 6.5 4.0625 6.75184 4.0625 7.0625C4.0625 7.37316 4.31434 7.625 4.625 7.625H8.875C9.18566 7.625 9.4375 7.37316 9.4375 7.0625C9.4375 6.75184 9.18566 6.5 8.875 6.5H4.625ZM4.625 13.9375C4.31434 13.9375 4.0625 14.1893 4.0625 14.5C4.0625 14.8107 4.31434 15.0625 4.625 15.0625H17.375C17.6857 15.0625 17.9375 14.8107 17.9375 14.5C17.9375 14.1893 17.6857 13.9375 17.375 13.9375H4.625ZM4.625 18.1875C4.31434 18.1875 4.0625 18.4393 4.0625 18.75C4.0625 19.0607 4.31434 19.3125 4.625 19.3125H17.375C17.6857 19.3125 17.9375 19.0607 17.9375 18.75C17.9375 18.4393 17.6857 18.1875 17.375 18.1875H4.625ZM4.625 22.4375C4.31434 22.4375 4.0625 22.6893 4.0625 23C4.0625 23.3107 4.31434 23.5625 4.625 23.5625H8.875C9.18566 23.5625 9.4375 23.3107 9.4375 23C9.4375 22.6893 9.18566 22.4375 8.875 22.4375H4.625Z" stroke="black" stroke-width="1.125" stroke-linecap="round" stroke-linejoin="round"/>
<path id="Vector_2" d="M17.625 7.0625C17.625 7.20057 17.5131 7.3125 17.375 7.3125C17.2369 7.3125 17.125 7.20057 17.125 7.0625C17.125 6.92443 17.2369 6.8125 17.375 6.8125C17.5131 6.8125 17.625 6.92443 17.625 7.0625Z" fill="black" stroke="black" stroke-width="0.5625"/>
</g>
</svg>
