<svg width="288" height="10" viewBox="0 0 288 10" fill="none" xmlns="http://www.w3.org/2000/svg">
<g clip-path="url(#clip0_348_4205)">
<path d="M8 10L3.23686 5.5L12.7631 5.5L8 10Z" fill="white"/>
<path d="M4.3869e-05 10L0 5.5L4.76318 5.5L4.3869e-05 10Z" fill="white"/>
<path d="M16 10L11.2369 5.5L20.7631 5.5L16 10Z" fill="white"/>
<path d="M24 10L19.2369 5.5L28.7631 5.5L24 10Z" fill="white"/>
<path d="M32 10L27.2369 5.5L36.7631 5.5L32 10Z" fill="white"/>
<path d="M40 10L35.2369 5.5L44.7631 5.5L40 10Z" fill="white"/>
<path d="M48 10L43.2369 5.5L52.7631 5.5L48 10Z" fill="white"/>
<path d="M56 10L51.2369 5.5L60.7631 5.5L56 10Z" fill="white"/>
<path d="M64 10L59.2369 5.5L68.7631 5.5L64 10Z" fill="white"/>
<path d="M72 10L67.2369 5.5L76.7631 5.5L72 10Z" fill="white"/>
<path d="M80 10L75.2369 5.5L84.7631 5.5L80 10Z" fill="white"/>
<path d="M88 10L83.2369 5.5L92.7631 5.5L88 10Z" fill="white"/>
<path d="M96 10L91.2369 5.5L100.763 5.5L96 10Z" fill="white"/>
<path d="M104 10L99.2369 5.5L108.763 5.5L104 10Z" fill="white"/>
<path d="M112 10L107.237 5.5L116.763 5.5L112 10Z" fill="white"/>
<path d="M120 10L115.237 5.5L124.763 5.5L120 10Z" fill="white"/>
<path d="M128 10L123.237 5.5L132.763 5.5L128 10Z" fill="white"/>
<path d="M136 10L131.237 5.5L140.763 5.5L136 10Z" fill="white"/>
<path d="M144 10L139.237 5.5L148.763 5.5L144 10Z" fill="white"/>
<path d="M152 10L147.237 5.5L156.763 5.5L152 10Z" fill="white"/>
<path d="M160 10L155.237 5.5L164.763 5.5L160 10Z" fill="white"/>
<path d="M168 10L163.237 5.5L172.763 5.5L168 10Z" fill="white"/>
<path d="M176 10L171.237 5.5L180.763 5.5L176 10Z" fill="white"/>
<path d="M184 10L179.237 5.5L188.763 5.5L184 10Z" fill="white"/>
<path d="M192 10L187.237 5.5L196.763 5.5L192 10Z" fill="white"/>
<path d="M200 10L195.237 5.5L204.763 5.5L200 10Z" fill="white"/>
<path d="M208 10L203.237 5.5L212.763 5.5L208 10Z" fill="white"/>
<path d="M216 10L211.237 5.5L220.763 5.5L216 10Z" fill="white"/>
<path d="M224 10L219.237 5.5L228.763 5.5L224 10Z" fill="white"/>
<path d="M232 10L227.237 5.5L236.763 5.5L232 10Z" fill="white"/>
<path d="M240 10L235.237 5.5L244.763 5.5L240 10Z" fill="white"/>
<path d="M248 10L243.237 5.5L252.763 5.5L248 10Z" fill="white"/>
<path d="M256 10L251.237 5.5L260.763 5.5L256 10Z" fill="white"/>
<path d="M264 10L259.237 5.5L268.763 5.5L264 10Z" fill="white"/>
<path d="M272 10L267.237 5.5L276.763 5.5L272 10Z" fill="white"/>
<path d="M279.5 10L274.737 5.5L284 5.5L279.5 10Z" fill="white"/>
<path d="M288 10L283.5 6L288 6V10Z" fill="white"/>
<rect x="-2" y="-5" width="290" height="11" fill="white"/>
</g>
<defs>
<clipPath id="clip0_348_4205">
<rect width="288" height="10" fill="white"/>
</clipPath>
</defs>
</svg>
